<?xml version="1.0" standalone="no"?>
<!DOCTYPE svg PUBLIC "-//W3C//DTD SVG 20010904//EN"
 "http://www.w3.org/TR/2001/REC-SVG-20010904/DTD/svg10.dtd">
<svg version="1.0" xmlns="http://www.w3.org/2000/svg"
 width="516.000000pt" height="516.000000pt" viewBox="0 0 516.000000 516.000000"
 preserveAspectRatio="xMidYMid meet">
<metadata>
Created by potrace 1.14, written by Peter Selinger 2001-2017
</metadata>
<g transform="translate(0.000000,516.000000) scale(0.100000,-0.100000)"
fill="#000000" stroke="none">
<path d="M2547 4344 c-1 -1 -14 -5 -27 -8 -121 -23 -243 -113 -293 -217 -51
-102 -42 -256 19 -337 15 -20 31 -39 34 -42 38 -31 64 -92 99 -226 21 -82 45
-165 53 -185 14 -32 14 -38 -3 -71 l-18 -36 32 -6 32 -7 -27 -23 c-29 -26 -27
-36 8 -36 26 0 33 -21 39 -120 6 -84 -14 -192 -53 -292 -31 -82 -134 -247
-154 -249 -7 -1 -67 0 -134 1 -91 1 -123 -2 -132 -12 -6 -8 -26 -55 -44 -106
l-34 -93 -83 78 c-46 43 -89 81 -95 85 -30 17 -40 -15 -77 -243 -21 -129 -39
-238 -39 -243 0 -26 -10 8 -20 69 -6 39 -13 84 -16 100 -3 17 -16 98 -30 180
-27 165 -30 184 -39 235 -4 19 -8 50 -11 68 -3 27 -85 521 -110 667 -6 36 -16
47 -35 40 -13 -5 -69 -161 -310 -862 -33 -95 -69 -199 -81 -230 l-21 -57 -28
123 c-15 67 -31 127 -36 132 -5 5 -142 8 -324 7 -271 -3 -314 -5 -314 -18 0
-13 40 -15 299 -15 l300 -1 12 -49 c7 -28 24 -103 39 -168 25 -106 29 -118 48
-115 16 2 27 23 53 98 17 52 73 214 124 360 50 146 111 321 135 390 69 201 95
273 99 277 4 4 11 -32 21 -102 4 -22 13 -76 20 -120 8 -44 17 -93 19 -110 7
-46 85 -525 92 -565 4 -19 8 -44 10 -55 2 -19 11 -71 20 -126 2 -15 15 -93 29
-175 14 -81 25 -152 25 -156 0 -5 10 -8 22 -6 23 3 31 23 41 99 3 24 13 82 21
129 8 47 17 99 19 115 25 167 42 255 48 255 4 0 42 -33 85 -72 43 -41 86 -73
97 -73 17 0 27 19 59 110 21 60 43 112 47 115 16 9 211 -1 211 -11 0 -6 34
-70 76 -142 98 -172 205 -392 238 -491 30 -89 32 -103 10 -62 -11 20 -19 25
-26 18 -13 -13 5 -63 33 -87 21 -20 49 -14 49 10 0 8 4 15 9 15 5 0 7 147 4
359 l-5 359 23 7 c84 26 88 125 7 159 -39 17 -97 5 -120 -25 -38 -46 -12 -120
48 -135 20 -5 21 -11 23 -202 2 -108 4 -269 5 -357 1 -88 1 -151 -2 -140 -21
105 -145 374 -271 593 l-71 123 29 37 c142 177 226 446 193 615 l-9 47 71 0
c81 1 204 9 225 16 10 3 12 -2 6 -23 -49 -191 0 -416 136 -619 46 -70 47 -73
32 -100 -225 -422 -343 -739 -281 -752 21 -4 80 82 71 104 -8 22 -18 17 -36
-18 l-16 -33 4 30 c12 84 89 265 220 524 l96 188 127 -1 127 -1 85 -71 c117
-96 130 -105 149 -94 11 6 28 55 51 149 34 138 43 152 53 81 3 -19 13 -82 22
-140 10 -58 18 -112 20 -120 3 -22 42 -25 48 -3 6 19 14 88 22 188 3 33 8 76
10 95 3 19 7 60 10 90 5 60 13 135 20 190 3 19 7 62 10 95 7 83 14 127 18 132
4 3 11 -36 22 -127 1 -8 5 -33 8 -55 7 -42 39 -246 82 -520 14 -88 30 -187 35
-220 6 -33 12 -71 14 -85 30 -200 40 -256 47 -263 11 -13 48 11 47 31 0 20 9
105 16 142 3 14 8 48 11 75 7 63 22 169 30 215 2 14 7 48 10 75 3 28 8 65 12
84 l6 35 19 -25 c11 -13 33 -39 50 -57 l30 -33 216 6 c119 3 225 8 235 11 39
12 3 21 -70 18 -43 -2 -136 -5 -207 -8 l-129 -5 -36 38 c-20 21 -53 57 -74 80
-32 36 -40 40 -57 31 -11 -6 -20 -14 -21 -18 -4 -35 -20 -149 -24 -172 -2 -14
-7 -45 -10 -70 -3 -25 -7 -54 -9 -65 -2 -11 -7 -49 -12 -85 -4 -36 -9 -68 -10
-72 -1 -5 -3 -16 -4 -25 -2 -18 -35 154 -45 237 -6 47 -12 87 -20 130 -3 14
-7 41 -10 60 -3 19 -7 46 -10 60 -3 14 -7 39 -9 55 -25 164 -98 628 -100 642
-2 10 -7 37 -11 61 -7 46 -8 46 -34 32 -15 -7 -20 -27 -25 -87 -4 -43 -9 -89
-11 -103 -2 -14 -6 -56 -10 -95 -4 -38 -8 -83 -10 -100 -2 -16 -8 -73 -14
-125 -10 -92 -15 -136 -26 -249 -3 -30 -7 -56 -8 -58 -2 -1 -11 50 -21 115
-24 161 -24 164 -50 160 -18 -3 -26 -23 -64 -173 -24 -93 -46 -178 -50 -188
-7 -16 -19 -9 -97 53 l-89 71 -156 -2 -155 -2 -29 39 c-46 62 -114 212 -136
298 -30 120 -22 324 14 349 7 5 1 15 -17 29 l-29 21 31 13 32 13 -24 38 -24
38 -88 -2 -87 -2 6 62 c3 34 9 95 12 135 3 40 7 81 9 92 3 18 18 189 18 218 1
28 17 8 48 -58 31 -68 39 -77 52 -64 6 6 -61 151 -87 188 -20 28 -32 11 -35
-52 -1 -26 -4 -60 -6 -77 -1 -16 -8 -92 -15 -168 -7 -75 -14 -136 -16 -135 -1
2 -9 57 -18 123 -9 66 -18 134 -21 150 -2 17 -7 53 -10 80 -8 72 -14 95 -24
95 -8 0 -63 -106 -98 -189 -11 -26 -11 -32 -1 -29 7 3 31 40 52 84 l40 79 7
-55 c3 -30 9 -80 13 -110 4 -30 9 -66 11 -80 3 -14 7 -47 10 -75 3 -27 7 -59
9 -70 2 -11 7 -48 11 -83 l7 -62 -72 1 c-87 2 -83 -4 -139 208 -46 172 -51
183 -104 241 -61 65 -81 120 -81 220 -1 71 4 94 26 140 63 133 186 207 344
208 166 1 309 -83 373 -218 20 -44 26 -73 28 -140 2 -96 -12 -141 -70 -213
-51 -63 -55 -73 -86 -239 -16 -84 -32 -160 -36 -169 -7 -18 20 -35 30 -19 3 6
22 87 41 182 37 180 41 190 104 276 66 91 78 232 28 339 -46 99 -162 186 -285
214 -41 9 -177 11 -186 3z m280 -1063 c20 -26 15 -39 -17 -46 -41 -9 -45 -21
-13 -39 l28 -14 -35 -7 c-55 -10 -220 -15 -274 -8 -49 6 -49 6 -22 20 35 19
33 31 -9 39 -39 7 -45 24 -17 52 15 15 40 17 182 18 142 2 166 0 177 -15z"/>
<path d="M2538 3219 c-19 -12 27 -20 106 -18 85 2 116 7 116 18 0 9 -207 9
-222 0z"/>
<path d="M19 1335 c0 0 -2 -8 -4 -17 -2 -13 3 -16 23 -15 l27 2 5 -106 c4 -89
7 -105 20 -100 12 5 15 26 15 106 l0 100 28 -1 c26 -1 41 25 15 27 -9 1 -118
4 -129 4z"/>
<path d="M464 1332 c-13 -9 -13 -225 0 -234 19 -13 26 3 26 56 l0 53 38 -1 37
-1 0 -52 c-1 -45 2 -53 17 -53 16 0 18 11 18 114 0 92 -3 115 -15 120 -17 6
-17 5 -19 -56 -1 -42 -2 -43 -38 -45 l-38 -3 0 49 c0 50 -8 65 -26 53z"/>
<path d="M948 1329 c-67 -25 -65 -204 2 -228 62 -21 98 17 101 107 3 62 -15
106 -47 121 -14 6 -26 11 -27 10 -1 0 -14 -5 -29 -10z m56 -40 c21 -30 17
-133 -7 -156 -37 -37 -72 23 -62 107 9 70 39 91 69 49z"/>
<path d="M1843 1329 c-31 -11 -46 -45 -49 -108 -4 -88 43 -149 93 -122 14 7
23 7 31 -1 16 -16 24 9 20 68 -3 46 -4 48 -35 50 -23 2 -33 -2 -33 -12 0 -8 9
-14 20 -14 23 0 27 -27 7 -54 -20 -27 -54 -12 -65 28 -17 60 2 146 33 146 20
0 45 -29 39 -45 -4 -10 0 -15 15 -15 25 0 24 -2 10 38 -14 40 -47 56 -86 41z"/>
<path d="M2680 1328 c0 -5 0 -11 0 -15 0 -5 10 -8 23 -8 21 0 22 -4 25 -102 2
-78 6 -102 17 -107 16 -6 17 -2 17 127 0 50 4 77 12 78 6 1 17 2 25 3 19 1 27
26 9 27 -69 4 -128 3 -128 -3z"/>
<path d="M3162 1327 c-23 -11 -36 -42 -30 -74 2 -10 21 -27 43 -38 37 -18 64
-42 65 -56 0 -3 -6 -13 -13 -24 -18 -24 -67 -13 -67 15 0 14 -7 20 -21 20 -16
0 -19 -4 -14 -22 23 -77 145 -66 145 13 0 27 -25 52 -85 85 -25 14 -26 43 -2
58 15 9 22 7 37 -11 22 -28 40 -30 40 -4 0 35 -57 58 -98 38z"/>
<path d="M3683 1329 c-15 -5 -23 -17 -23 -31 0 -13 -6 -45 -13 -73 l-13 -50
-13 78 c-12 71 -14 77 -37 77 l-24 0 0 -115 c0 -96 3 -115 15 -115 12 0 15 16
16 78 l1 77 15 -70 c19 -92 28 -108 41 -74 6 14 13 47 17 73 10 63 19 50 16
-23 -1 -33 3 -62 9 -66 17 -11 21 16 18 132 -3 110 -3 110 -25 102z"/>
<path d="M4013 1324 c-2 -5 -2 -59 -1 -119 l3 -109 65 0 c48 0 66 4 68 15 2
11 -10 14 -53 13 l-56 -2 3 42 3 41 44 2 c24 1 46 5 49 8 12 12 -19 22 -58 19
-40 -2 -40 -2 -40 35 l0 37 48 0 c34 -1 47 3 47 13 0 11 -15 15 -59 15 -33 1
-60 -4 -63 -10z"/>
<path d="M4463 1333 c-10 -3 -13 -37 -13 -124 0 -101 2 -118 15 -113 11 5 15
25 16 83 1 79 4 75 24 -39 12 -63 32 -62 42 3 14 95 21 103 22 25 1 -64 4 -76
16 -72 12 5 15 28 15 119 0 103 -2 113 -19 118 -17 4 -22 -5 -36 -69 -9 -41
-18 -74 -20 -74 -2 0 -8 31 -15 69 -11 67 -21 83 -47 74z"/>
<path d="M4933 1327 c-28 -12 -43 -55 -43 -123 0 -88 53 -131 117 -96 24 13
35 50 35 116 0 86 -48 131 -109 103z m61 -39 c20 -31 16 -132 -6 -154 -20 -20
-46 -12 -57 18 -15 40 -6 130 15 145 24 18 31 17 48 -9z"/>
<path d="M1345 1230 c1 -109 10 -130 56 -132 78 -3 89 14 88 142 0 71 -4 90
-15 90 -8 0 -15 -10 -15 -22 -1 -13 -2 -52 -4 -88 -1 -36 -3 -70 -3 -76 -3
-16 -31 -26 -53 -19 -17 6 -19 18 -19 106 0 89 -2 99 -18 99 -17 0 -18 -10
-17 -100z"/>
<path d="M2235 1218 c0 -104 6 -135 27 -122 4 3 8 29 8 58 l0 53 39 0 38 0 -2
-54 c-2 -46 1 -53 17 -53 16 0 18 10 18 115 0 105 -2 115 -18 115 -15 0 -18
-7 -17 -37 2 -54 -2 -60 -40 -60 l-35 0 0 49 c0 39 -3 48 -18 48 -16 0 -17
-11 -17 -112z"/>
</g>
</svg>
